<svg id="Layer_1" data-name="Layer 1" xmlns="http://www.w3.org/2000/svg" xmlns:xlink="http://www.w3.org/1999/xlink" viewBox="0 0 133 100"><defs><style>.cls-1{fill:#00adee;}.cls-2{fill:#fff;}.cls-3{fill:url(#Orange_Yellow);}.cls-4{fill:url(#Orange_Yellow-2);}.cls-5{fill:url(#Orange_Yellow-3);}.cls-6{fill:url(#Orange_Yellow-4);}</style><linearGradient id="Orange_Yellow" x1="84.71" y1="30.38" x2="84.71" y2="54.95" gradientUnits="userSpaceOnUse"><stop offset="0" stop-color="#fff23a"/><stop offset="0.04" stop-color="#fee62d"/><stop offset="0.12" stop-color="#fed41a"/><stop offset="0.2" stop-color="#fdc90f"/><stop offset="0.28" stop-color="#fdc60b"/><stop offset="0.67" stop-color="#f28f3f"/><stop offset="0.89" stop-color="#ed693c"/><stop offset="1" stop-color="#e83e39"/></linearGradient><linearGradient id="Orange_Yellow-2" x1="54.99" y1="22.54" x2="54.99" y2="57.74" xlink:href="#Orange_Yellow"/><linearGradient id="Orange_Yellow-3" x1="19.5" y1="30.19" x2="19.5" y2="55.6" xlink:href="#Orange_Yellow"/><linearGradient id="Orange_Yellow-4" x1="109.96" y1="30.14" x2="109.96" y2="55.21" xlink:href="#Orange_Yellow"/></defs><title>Logo</title><path class="cls-1" d="M30.3,52a4.54,4.54,0,0,1-1.18-.14c-1.06-.28-1.32-1.07-1.39-2.08s-.07-2-.11-3c-.05-1.3-.07-2.59-.14-3.88A1.79,1.79,0,0,0,25.53,41a4.43,4.43,0,0,0-2,.57l.38,9.94a8.57,8.57,0,0,1-2.38.39c-1.17,0-2.25-.37-2.44-1.59a3.57,3.57,0,0,0,.09-3.79c.69,3.51-2.44,5.23-5.4,5.72a14.4,14.4,0,0,1-2.35.23,5.07,5.07,0,0,1-2.71-.65,2.34,2.34,0,0,1-.38-3.61,9.59,9.59,0,0,0,3.23.61,7,7,0,0,0,1.59-.18c1.45-.35,1.78-1.71.09-1.89-2.25-.24-5.16,0-6.36-2.37-1.7-3.4,1.25-6,4.32-6.68a12.1,12.1,0,0,1,2.61-.33,5.69,5.69,0,0,1,2.15.37,2.27,2.27,0,0,1,.87,3.65A6.58,6.58,0,0,0,14.34,41a7.92,7.92,0,0,0-2.09.26c-.51.15-1.34.45-1.11,1.13s1,.53,1.45.57c2.21.19,5.08.27,6.21,2.56l-.11-2.85c0-1.08-.26-2.27.49-3.17,1.29-1.55,3.73-2.1,5.64-2.25.38,0,.77,0,1.16,0a7.29,7.29,0,0,1,4.44,1.23,4.23,4.23,0,0,1,1.42,1.86A10.07,10.07,0,0,0,31,45.05a10.46,10.46,0,0,0,1.65,5.28c0,.44,0,.89,0,1.33A8.09,8.09,0,0,1,30.3,52Zm43.58,0-.41,0a4.31,4.31,0,0,1-2.9-2.2c-.85-1.2-1.68-2.41-2.53-3.62l-.35,5.3a8.51,8.51,0,0,1-1.64.17,5.11,5.11,0,0,1-2-.36c-1-.43-1.09-1.38-1-2.38a8.53,8.53,0,0,0,.72-7c.26,3.82-1.23,7.68-4.93,9.28a10.41,10.41,0,0,1-4.09.82A9.08,9.08,0,0,1,48,49.36c1.6-2.55,1.37-7.25-1.28-9.46,2.05,2.69,2.13,7.14-.16,9.71A8,8,0,0,1,40.62,52a8.93,8.93,0,0,1-2.44-.34,6.27,6.27,0,0,1-3.25-2.17l0-1.08-.12-3.14c0-.3,0-.6,0-.93a16.5,16.5,0,0,0-.37-3.84,6.55,6.55,0,0,1,3.3-2.71,8.85,8.85,0,0,1,3.19-.59,7.38,7.38,0,0,1,5.38,2.12,8.65,8.65,0,0,1,8.51-5.66l.53,0a8.54,8.54,0,0,1,8.28,6.93l.54-8.15a8.76,8.76,0,0,1,1.73-.18c1.33,0,2.72.36,3,1.68a10.61,10.61,0,0,1-.09,2.45c-.13,2-.26,3.93-.4,5.9l5.23-4.67a4.28,4.28,0,0,1,2,.56V42.1a31.5,31.5,0,0,1-3.3,2.51l3.7,4.19A8.55,8.55,0,0,0,76.36,50,2.53,2.53,0,0,1,73.88,52ZM85.06,52h-.54c-2-.06-4.22-.57-5.52-2.21l-.15-.21.15-.81-.75-.85-.2-.22A21.91,21.91,0,0,1,77.87,43h0A4.87,4.87,0,0,0,79,40.17a4,4,0,0,0-.94-2.76A8.13,8.13,0,0,1,80,37.17a5.07,5.07,0,0,1,1.42.19c1,.32,1.28,1.12,1.31,2.13s0,2,0,2.93c0,1.17,0,2.34,0,3.5a2.06,2.06,0,0,0,.89,2A3,3,0,0,0,85,48.2a3.86,3.86,0,0,0,1.66-.37V37.71a9,9,0,0,1,2.2-.31,3.46,3.46,0,0,1,2,.52,1.72,1.72,0,0,1,.6,1.19,9.53,9.53,0,0,0-.38,3.36v.75L91,45c0,1.2-.07,2.43-.09,3.66a1.09,1.09,0,0,1,0,.18,7.76,7.76,0,0,0,0,1.24,2.09,2.09,0,0,1-.2.22C89.37,51.65,87,52,85.06,52ZM121,42.76c2,.84,4.65,1.75,5.11,4.2.69,3.73-2.31,5.2-5.5,5.2-3.49,0-7.2-1.76-6.49-4.26h0a2.78,2.78,0,0,0,.27,3l0,.88a8.43,8.43,0,0,1-1.93.24,5.27,5.27,0,0,1-1.61-.23c-1-.35-1.24-1.15-1.25-2.16s.05-1.84.08-2.76c0-1.25.08-2.5.1-3.75a2.06,2.06,0,0,0-.34-1.47,1.64,1.64,0,0,0-1.27-.51,3.19,3.19,0,0,0-1.69.53c-.09,3.3-.15,6.6-.24,9.89a8.22,8.22,0,0,1-1.89.23,6.1,6.1,0,0,1-1.5-.18c-1.12-.32-1.39-1.11-1.4-2.2,0-.89,0-1.77.07-2.65,0-1.27.09-2.54.11-3.81a2.22,2.22,0,0,0-.28-1.43,1.71,1.71,0,0,0-1.38-.6,3.69,3.69,0,0,0-1.61.42l-.27,10a9.27,9.27,0,0,1-2.08.26,3,3,0,0,1-2.29-.74,1.58,1.58,0,0,1-.24-.39,11.07,11.07,0,0,0,.44-4.8c0-.37,0-.72,0-1V40.4c0-.26,0-.57,0-.91a2.48,2.48,0,0,1,.65-.81,8.84,8.84,0,0,1,9.94-.16,8.83,8.83,0,0,1,4.41-1.15c2.51,0,4.94,1.08,5.59,3.73.46,1.89.09,4.14,0,6.07a3.05,3.05,0,0,1,.82-.7,9,9,0,0,0,3.93,1.81,4.06,4.06,0,0,0,.54,0c.92,0,2.26-.27,1.37-1.31-.52-.61-1.87-.82-2.59-1.13a6.67,6.67,0,0,1-2.9-2.06c-1.68-2.43.1-5.56,2.69-6.26a9.53,9.53,0,0,1,2.34-.27c2.22,0,4.78.64,5.73,2.32a2.32,2.32,0,0,1-.93,3A7.72,7.72,0,0,0,121.19,41H121c-.41,0-.9.06-1.09.44C119.49,42.21,120.52,42.56,121,42.76Z"/><path class="cls-1" d="M127.38,44.09a4.65,4.65,0,0,0,1.08-5.66c-1.25-2.2-4.16-3.51-7.78-3.51a11.27,11.27,0,0,0-3,.36,6.91,6.91,0,0,0-3,1.76,8.5,8.5,0,0,0-5.82-2,11.53,11.53,0,0,0-4.29.83,11.1,11.1,0,0,0-5-1.12,10.4,10.4,0,0,0-6.54,2.11,3.88,3.88,0,0,0-.78-.79,5.63,5.63,0,0,0-3.43-1,11,11,0,0,0-2.83.4l-2.27.6a4.31,4.31,0,0,0-1.66-.94A7.42,7.42,0,0,0,80,34.81a10.47,10.47,0,0,0-2.73.38l-1.74.47a7.35,7.35,0,0,0-1.82-.34l-1-.07-.74.66-.91.82V36.6c0-.16,0-.35,0-.54a8.83,8.83,0,0,0,0-2.47c-.14-.85-1-3.64-5.27-3.64a11.27,11.27,0,0,0-2.19.23l-1.77.35-.12,1.8-.08,1.18a11.58,11.58,0,0,0-6.27-2.16h-.65a11.34,11.34,0,0,0-9.34,4.54,10.33,10.33,0,0,0-4.55-1,11.46,11.46,0,0,0-4,.73,9.09,9.09,0,0,0-3.55,2.45,6.44,6.44,0,0,0-1.46-1.5A9.55,9.55,0,0,0,26,34.86c-.43,0-.88,0-1.34,0a12.05,12.05,0,0,0-6.05,2,4.81,4.81,0,0,0-1.77-1.26,8,8,0,0,0-3-.55,14.08,14.08,0,0,0-3.13.39,8.68,8.68,0,0,0-6.07,4.44,6.26,6.26,0,0,0,.16,5.59A5.83,5.83,0,0,0,6.1,47.25a4.76,4.76,0,0,0-.8,3.28,4.57,4.57,0,0,0,2.12,3.31,7.17,7.17,0,0,0,4,1,17.12,17.12,0,0,0,2.74-.26,11.91,11.91,0,0,0,4-1.39,5.1,5.1,0,0,0,3.37,1.08,11,11,0,0,0,3.09-.5,17.72,17.72,0,0,0,2-.73,4,4,0,0,0,1.94,1.11,6.68,6.68,0,0,0,1.78.22,10.54,10.54,0,0,0,3.05-.48l1.72-.54a13.63,13.63,0,0,0,2.8.67l-.5.69,5.42.6c.13,0,.06-.46-.09-1.14A10.13,10.13,0,0,0,47.44,52a11.68,11.68,0,0,0,6.66,2.35c-.13.81-.18,1.39,0,1.37l5.35-1-.79-.93a10.68,10.68,0,0,0,1.12-.41,9.57,9.57,0,0,0,1.85-1,4,4,0,0,0,1.51,1.11,7.47,7.47,0,0,0,2.95.54,10.78,10.78,0,0,0,2.11-.21l1.77-.35,0-.68a5.43,5.43,0,0,0,3.91,1.62A4.7,4.7,0,0,0,78,52.08a10,10,0,0,0,6.48,2.23h.61c3,0,5.29-.64,6.89-1.9a5.12,5.12,0,0,0,4,1.52,11.65,11.65,0,0,0,2.64-.33l1.75-.43v-.3a4.37,4.37,0,0,0,1.81,1,7.91,7.91,0,0,0,2.13.27,10.27,10.27,0,0,0,2.45-.3l1.75-.43v-.3a4.12,4.12,0,0,0,1.55.9,7.16,7.16,0,0,0,2.35.36,10.68,10.68,0,0,0,2.49-.31l1.25-.3a13.27,13.27,0,0,0,4.44.77,8.33,8.33,0,0,0,6.59-2.61,6.29,6.29,0,0,0,1.23-5.39A5.91,5.91,0,0,0,127.38,44.09Z"/><path class="cls-2" d="M121.7,42.45l-.44-.18-.13-.05a3.43,3.43,0,0,1-.68-.36,1.5,1.5,0,0,1,.5-.06h.22a7.19,7.19,0,0,1,3.88,1.38l.36.31.41-.24A3,3,0,0,0,127,39.38c-1.4-2.46-5.18-2.65-6.3-2.65a9.6,9.6,0,0,0-2.51.3,5.32,5.32,0,0,0-3.45,3c-.94-2-3-3.21-5.86-3.21a9.71,9.71,0,0,0-4.37,1,9.58,9.58,0,0,0-10.39.42c-1.36,1.09-1.34,2.86-1.32,4.28,0,.28,0,.55,0,.81,0,.61,0,1.21,0,1.82,0,1.19-.07,2.43-.1,3.64V49a3.22,3.22,0,0,0,.57,2.35,3.55,3.55,0,0,0,2.78,1,10.12,10.12,0,0,0,2.24-.28L98.7,52l0-.5L99,41.86a2.82,2.82,0,0,1,1-.19,1,1,0,0,1,.86.35c.15.18.15.46.14.9V43c0,.84,0,1.7-.06,2.53,0,.42,0,.84,0,1.27l0,.87c0,.59,0,1.2,0,1.8a2.58,2.58,0,0,0,1.88,2.83,6.57,6.57,0,0,0,1.67.21,9,9,0,0,0,2.05-.25l.48-.12,0-.5c0-1.66.08-3.34.12-5s.07-3,.11-4.56a2.46,2.46,0,0,1,1-.26,1,1,0,0,1,.78.3c.17.19.18.48.17,1v.07c0,.83,0,1.67-.06,2.49,0,.42,0,.83,0,1.25l0,.91c0,.61,0,1.24,0,1.87a2.62,2.62,0,0,0,1.7,2.78,5.85,5.85,0,0,0,1.81.26,9.44,9.44,0,0,0,2.09-.25l.48-.12v-.5l0-.52a10,10,0,0,0,5.58,1.56,6.67,6.67,0,0,0,5.28-2,4.65,4.65,0,0,0,.86-4C126.26,44.33,123.73,43.29,121.7,42.45Zm-3.4,4.13c.25.11.55.2.86.3a3.93,3.93,0,0,1,1.48.65l.08.1a2.8,2.8,0,0,1-1,.14,2.42,2.42,0,0,1-.42,0,8.15,8.15,0,0,1-3.64-1.68l-.34-.26-.16.08,0-.17c0-.39,0-.78.07-1.17A7.58,7.58,0,0,0,118.3,46.58Z"/><path class="cls-2" d="M92.19,45.86c0-.4,0-.77,0-1.07V40.87c0-.12,0-.26,0-.4,0-.95.06-2.24-.89-3a4,4,0,0,0-2.42-.66,9.17,9.17,0,0,0-2.37.34l-.48.13V47.5a3.38,3.38,0,0,1-1,.15,2.19,2.19,0,0,1-1.06-.23c-.38-.21-.53-.58-.55-1.41s0-1.55,0-2.31c0-.39,0-.78,0-1.17v-1c0-.65,0-1.32,0-2a2.63,2.63,0,0,0-1.78-2.74A5.71,5.71,0,0,0,80,36.63a9.14,9.14,0,0,0-2.29.31l-.48.13v2.27a3,3,0,0,0-.92-1.25,4.69,4.69,0,0,0-2.71-1H73.3l-.2.18-4,3.6.29-4.3c0-.19,0-.38,0-.59a7.94,7.94,0,0,0,0-2c-.14-.83-.79-2.22-3.59-2.22A8.92,8.92,0,0,0,64,32l-.5.09,0,.5-.34,5.15a9.43,9.43,0,0,0-7.79-4.54h-.57A9.31,9.31,0,0,0,46,38.35a8.21,8.21,0,0,0-5.13-1.66,9.64,9.64,0,0,0-3.42.62,7.29,7.29,0,0,0-4.5,5A5.74,5.74,0,0,0,30.81,38,7.91,7.91,0,0,0,26,36.67c-.39,0-.79,0-1.21,0-2,.15-4.62.71-6.1,2.48A4.12,4.12,0,0,0,18,42.33c0,.17,0,.33,0,.49l0,1c-1.41-1-3.35-1.18-5-1.31l-.42,0h-.19a2.12,2.12,0,0,1-.69-.12,1.66,1.66,0,0,1,.66-.29,7.5,7.5,0,0,1,1.91-.24,5.8,5.8,0,0,1,2.2.37l.44.19.31-.36a2.91,2.91,0,0,0-1.11-4.68,6.31,6.31,0,0,0-2.4-.42,12.41,12.41,0,0,0-2.75.34,7.09,7.09,0,0,0-4.91,3.51,4.51,4.51,0,0,0,.15,4.1C7.44,47.16,10,47.33,12,47.46c.39,0,.76,0,1.11.09a1,1,0,0,1,.55.17,1,1,0,0,1-.72.43,6.11,6.11,0,0,1-1.44.16,8.64,8.64,0,0,1-3-.57l-.41-.15-.29.32A3.11,3.11,0,0,0,7,50.42a2.9,2.9,0,0,0,1.34,2.1,5.56,5.56,0,0,0,3.07.76A15.27,15.27,0,0,0,13.85,53a8.92,8.92,0,0,0,4.64-2.11c.23.79.94,1.77,3,1.77a9,9,0,0,0,2.58-.42l.48-.15,0-.5-.36-9.51a3.53,3.53,0,0,1,1.36-.32,1.16,1.16,0,0,1,1.3,1.25c0,.86.07,1.73.09,2.57,0,.44,0,.87,0,1.3s0,.67,0,1c0,.67,0,1.37.08,2A2.58,2.58,0,0,0,29,52.64a5.2,5.2,0,0,0,1.35.17,8.75,8.75,0,0,0,2.54-.41l.48-.15,0-.5-.12-3.27,0-.76a7.46,7.46,0,0,0,4.93,4.8,9.37,9.37,0,0,0,1.51.29l-.62,1,2.81.19c.09,0,0-.52-.25-1.14a8.13,8.13,0,0,0,5.61-2.44l.39-.47a9.77,9.77,0,0,0,7.19,3H55c-.15.78-.27,1.49-.15,1.47l3-.58L57,52.74a9,9,0,0,0,2.13-.6,8.31,8.31,0,0,0,3.27-2.52A2.23,2.23,0,0,0,63.77,52a5.81,5.81,0,0,0,2.28.41,8.86,8.86,0,0,0,1.77-.18l.5-.1,0-.5.22-3.43L70,50.29a4.93,4.93,0,0,0,3.35,2.47l.49,0c1.69,0,2.9-1.17,3.24-3.13l.06-.31L77,49.11l-3.79-4.28.21-.15c1.43-1,3.31-2.28,3.82-3.81v2.26c0,.34,0,.68,0,1,0,2-.09,4.33,1.3,6.09,1.2,1.53,3.28,2.38,6,2.46h.56c1.94,0,4.57-.32,6.16-1.82C92.42,49.77,92.29,47.6,92.19,45.86Z"/><path class="cls-3" d="M91.49,40.85c0-.91.18-2.23-.63-2.84-1.06-.79-3-.53-4.22-.21V47.92a3.59,3.59,0,0,1-3,0,2,2,0,0,1-.89-2c0-1.17,0-2.34,0-3.5,0-1,0-2,0-2.93s-.27-1.82-1.31-2.13a6.82,6.82,0,0,0-3.53.1v5.56c0,2.23-.34,4.86,1.13,6.72C80.3,51.48,82.53,52,84.52,52s4.72-.18,6.24-1.63c1.25-1.18.73-4.11.73-5.64Z"/><path class="cls-4" d="M75.86,38.57a3.85,3.85,0,0,0-2.33-.81L68.3,42.43q.21-3,.4-5.9a10.61,10.61,0,0,0,.09-2.45c-.34-1.95-3.2-1.8-4.68-1.5l-.54,8.15a8.55,8.55,0,0,0-8.28-6.94c-4-.19-7.71,1.77-9,5.65-2.15-2.25-5.75-2.61-8.57-1.54A7,7,0,0,0,33.3,45c.16,3.08,1.8,5.88,4.88,6.76a8.93,8.93,0,0,0,2.44.33l-.69,1.07,1.22.07a4.25,4.25,0,0,0-.35-1.14,7.92,7.92,0,0,0,5.76-2.41c2.29-2.57,2.21-7,.16-9.71,2.65,2.21,2.88,6.9,1.28,9.45a9.25,9.25,0,0,0,7.68,2.64,6.12,6.12,0,0,0-.25,1.51l1.51-.29-1.06-1.23a9.82,9.82,0,0,0,2.92-.76C62.5,49.72,64,45.86,63.73,42A8.56,8.56,0,0,1,63,49c-.07,1,0,1.94,1,2.38a6.7,6.7,0,0,0,3.66.19l.35-5.3c.85,1.2,1.68,2.42,2.53,3.62a4.29,4.29,0,0,0,2.9,2.19c1.74.22,2.72-.94,3-2.55l-4.27-4.84C73.84,43.46,78.58,40.85,75.86,38.57Z"/><path class="cls-5" d="M30.42,38.54a8.19,8.19,0,0,0-5.6-1.19c-1.91.15-4.35.7-5.64,2.25-.75.9-.53,2.08-.49,3.17l.11,2.84c-1.13-2.29-4-2.37-6.21-2.55-.47,0-1.27,0-1.45-.57s.6-1,1.11-1.13a7.68,7.68,0,0,1,4.55.16,2.27,2.27,0,0,0-.87-3.65,8.29,8.29,0,0,0-4.76,0c-3.07.69-6,3.28-4.32,6.67,1.2,2.39,4.11,2.14,6.36,2.38,1.69.18,1.36,1.54-.09,1.88a8.54,8.54,0,0,1-4.82-.42A2.34,2.34,0,0,0,8.68,52c1.43.9,3.48.68,5.06.42,3-.5,6.09-2.21,5.4-5.72a3.56,3.56,0,0,1-.09,3.79c.32,2.12,3.34,1.66,4.82,1.19l-.38-9.94c1.62-.88,3.86-.93,4,1.3.07,1.3.09,2.59.14,3.89,0,1,0,2,.11,3s.33,1.8,1.39,2.08a6.85,6.85,0,0,0,3.53-.24q-.12-3.14-.23-6.28C32.33,43,32.61,40.18,30.42,38.54Z"/><path class="cls-6" d="M121,42.85c-.48-.2-1.51-.55-1.14-1.29.23-.46.9-.45,1.33-.44a7.73,7.73,0,0,1,4.29,1.55,2.33,2.33,0,0,0,.93-3c-1.33-2.33-5.78-2.66-8.07-2-2.59.7-4.37,3.83-2.69,6.26a6.67,6.67,0,0,0,2.9,2.06c.72.31,2.07.52,2.59,1.12,1.1,1.29-1.19,1.41-1.91,1.28a8.88,8.88,0,0,1-3.93-1.8,2.73,2.73,0,0,0-.82.7c.06-1.93.43-4.19,0-6.08-1.06-4.31-6.83-4.46-10-2.57a8.84,8.84,0,0,0-9.94.16c-1.34,1.08-1,3-1.08,4.6-.05,1.82-.11,3.63-.14,5.45a3,3,0,0,0,.4,2.1c.91,1,3.2.77,4.37.49l.27-10c.88-.46,2.28-.72,3,.18A2.21,2.21,0,0,1,101.6,43c0,1.27-.07,2.54-.11,3.8,0,.89-.07,1.77-.07,2.65,0,1.1.28,1.89,1.4,2.2a7.2,7.2,0,0,0,3.39,0c.09-3.3.15-6.6.24-9.89.81-.55,2.22-.85,3,0a2,2,0,0,1,.34,1.47c0,1.25-.07,2.5-.1,3.75,0,.91-.09,1.84-.08,2.75s.23,1.82,1.25,2.16a6.85,6.85,0,0,0,3.54,0l0-.88a2.78,2.78,0,0,1-.27-3h0c-1.35,4.78,13.45,6.88,12-1C125.65,44.6,123,43.69,121,42.85Z"/><path class="cls-2" d="M36.84,46.73a6.87,6.87,0,0,0,2,1,7.19,7.19,0,0,0,2.05.32,8.11,8.11,0,0,0,2.07-.27A9.61,9.61,0,0,0,45,46.94a4.19,4.19,0,0,1-1.75,1.61,5.19,5.19,0,0,1-2.39.56,4.94,4.94,0,0,1-2.38-.62A3.68,3.68,0,0,1,36.84,46.73Z"/><path class="cls-2" d="M59.25,44.22a2.8,2.8,0,0,1-.41,1.39,3.89,3.89,0,0,1-1,1.1,5.55,5.55,0,0,1-2.77,1,5.91,5.91,0,0,1-2.91-.42,4,4,0,0,1-2.1-1.94,6.79,6.79,0,0,0,2.42.94,8.47,8.47,0,0,0,2.46.1,7.35,7.35,0,0,0,2.35-.61A4.67,4.67,0,0,0,59.25,44.22Z"/><ellipse class="cls-2" cx="43.48" cy="43.77" rx="1.85" ry="1.22" transform="translate(-4.02 83.14) rotate(-84.85)"/><ellipse class="cls-2" cx="39.02" cy="43.06" rx="2.03" ry="1.38" transform="matrix(0.19, -0.98, 0.98, 0.19, -10.58, 73.33)"/><ellipse class="cls-2" cx="51.27" cy="40.99" rx="1.38" ry="2.03" transform="translate(-3.85 5.35) rotate(-5.76)"/><ellipse class="cls-2" cx="56.08" cy="40.01" rx="1.62" ry="2.38" transform="translate(-5.52 9.17) rotate(-8.92)"/><path class="cls-1" d="M9.44,61.37l.23-.08a1.55,1.55,0,0,1,.31,0,1.08,1.08,0,0,1,.44.08.39.39,0,0,1,.22.25l.23.75.21.67c.07.22.13.43.19.64s.13.44.19.66h0c.07-.36.13-.71.19-1s.11-.67.17-1,.11-.66.16-1,.09-.69.14-1.05a1,1,0,0,1,.49-.12.75.75,0,0,1,.4.11.37.37,0,0,1,.16.34,4.12,4.12,0,0,1,0,.51c0,.22-.06.48-.11.76s-.11.58-.17.9-.13.63-.21.93-.14.58-.21.84-.14.47-.2.64a1,1,0,0,1-.31.14,1.49,1.49,0,0,1-.43.06,1.21,1.21,0,0,1-.5-.09.41.41,0,0,1-.25-.23l-.17-.46c-.06-.18-.12-.37-.18-.58s-.14-.43-.2-.66-.14-.46-.2-.7c-.06.23-.12.47-.19.71s-.13.47-.19.69-.12.44-.18.63-.12.36-.17.49a.78.78,0,0,1-.29.14,1.33,1.33,0,0,1-.42.06,1.28,1.28,0,0,1-.5-.09A.51.51,0,0,1,7.79,65a4.94,4.94,0,0,1-.17-.48c-.06-.21-.13-.45-.2-.72l-.2-.87c-.07-.31-.13-.62-.19-.92s-.12-.61-.18-.9-.09-.55-.12-.79A1,1,0,0,1,7,60.14a.74.74,0,0,1,.34-.07.67.67,0,0,1,.39.11.52.52,0,0,1,.19.36c.08.46.16.88.22,1.23s.12.69.17,1,.11.57.15.81l.15.74h0c.07-.24.13-.47.19-.68S8.94,63.2,9,63l.2-.71Z"/><path class="cls-1" d="M14.84,63.72a1,1,0,0,0,.44.63,1.49,1.49,0,0,0,.79.2,2,2,0,0,0,.66-.11,2.76,2.76,0,0,0,.48-.22.49.49,0,0,1,.2.18.48.48,0,0,1,.07.26.43.43,0,0,1-.11.3,1.07,1.07,0,0,1-.31.22,2,2,0,0,1-.47.14,2.74,2.74,0,0,1-.59.06,2.94,2.94,0,0,1-.91-.14,2,2,0,0,1-.7-.41,1.92,1.92,0,0,1-.45-.68,2.52,2.52,0,0,1-.17-1,2.31,2.31,0,0,1,.16-.91,1.78,1.78,0,0,1,.44-.65,1.56,1.56,0,0,1,.64-.39,2.15,2.15,0,0,1,.77-.13,2.09,2.09,0,0,1,.76.13,1.83,1.83,0,0,1,.59.36,1.79,1.79,0,0,1,.38.56,1.7,1.7,0,0,1,.14.71.45.45,0,0,1-.12.35.64.64,0,0,1-.34.16Zm.94-1.8a.94.94,0,0,0-.7.28,1.16,1.16,0,0,0-.31.78l1.88-.28a1,1,0,0,0-.25-.54A.78.78,0,0,0,15.78,61.92Z"/><path class="cls-1" d="M19.41,65.28a1.27,1.27,0,0,1-.28,0,.74.74,0,0,1-.45-.11.5.5,0,0,1-.14-.39V59.75l.2,0,.28,0a.74.74,0,0,1,.45.11.47.47,0,0,1,.14.39v5.06Z"/><path class="cls-1" d="M22.81,62a1.19,1.19,0,0,0-.47.09,1,1,0,0,0-.62.64,1.35,1.35,0,0,0-.1.55,1.24,1.24,0,0,0,.33.94,1.16,1.16,0,0,0,.86.32,1.37,1.37,0,0,0,.51-.08,2.7,2.7,0,0,0,.38-.17.57.57,0,0,1,.19.19.47.47,0,0,1,.08.26.55.55,0,0,1-.34.47,2,2,0,0,1-.92.19,3.06,3.06,0,0,1-.88-.13,1.82,1.82,0,0,1-.69-.4,1.74,1.74,0,0,1-.44-.67,2.36,2.36,0,0,1-.16-.92,2.41,2.41,0,0,1,.17-.93,1.78,1.78,0,0,1,.46-.67,1.86,1.86,0,0,1,.68-.4,2.53,2.53,0,0,1,.83-.13,1.77,1.77,0,0,1,.9.2.56.56,0,0,1,.34.48.43.43,0,0,1-.07.25.93.93,0,0,1-.16.18l-.38-.18A1.5,1.5,0,0,0,22.81,62Z"/><path class="cls-1" d="M28.66,63.24a2.52,2.52,0,0,1-.15.89,2,2,0,0,1-.42.67,1.72,1.72,0,0,1-.65.43,2.3,2.3,0,0,1-.85.15,2.35,2.35,0,0,1-.86-.15,1.8,1.8,0,0,1-.65-.43,1.87,1.87,0,0,1-.42-.66,2.54,2.54,0,0,1-.14-.9,2.46,2.46,0,0,1,.14-.88,1.8,1.8,0,0,1,.43-.67,1.92,1.92,0,0,1,.65-.42,2.34,2.34,0,0,1,.85-.15,2.24,2.24,0,0,1,.84.15,1.87,1.87,0,0,1,.66.42,2,2,0,0,1,.42.68A2.41,2.41,0,0,1,28.66,63.24ZM26.59,62a.86.86,0,0,0-.72.34,1.85,1.85,0,0,0,0,1.89,1,1,0,0,0,1.44,0,1.55,1.55,0,0,0,.26-.95,1.52,1.52,0,0,0-.26-.94A.89.89,0,0,0,26.59,62Z"/><path class="cls-1" d="M35.5,65.24l-.2,0a1.27,1.27,0,0,1-.28,0,.74.74,0,0,1-.45-.11.5.5,0,0,1-.14-.39v-2.2a.6.6,0,0,0-.18-.49.79.79,0,0,0-.5-.16,1.15,1.15,0,0,0-.72.28,1.94,1.94,0,0,1,0,.24v2.76l-.2,0a1.2,1.2,0,0,1-.28,0,.73.73,0,0,1-.44-.11.47.47,0,0,1-.14-.39v-2.2a.58.58,0,0,0-.2-.49.79.79,0,0,0-.5-.16,1.23,1.23,0,0,0-.39.07,2.64,2.64,0,0,0-.29.14v3.07l-.21,0a1.2,1.2,0,0,1-.28,0,.73.73,0,0,1-.44-.11.47.47,0,0,1-.15-.39V62.09a.53.53,0,0,1,.09-.32.78.78,0,0,1,.26-.25,2.24,2.24,0,0,1,.64-.29,3.1,3.1,0,0,1,.81-.11,1.88,1.88,0,0,1,1.25.41,2.68,2.68,0,0,1,.56-.29,2.11,2.11,0,0,1,.75-.12,2.59,2.59,0,0,1,.63.08,1.37,1.37,0,0,1,.51.26,1.28,1.28,0,0,1,.34.45,1.47,1.47,0,0,1,.13.66Z"/><path class="cls-1" d="M37.44,63.72a1,1,0,0,0,.44.63,1.53,1.53,0,0,0,.8.2,1.93,1.93,0,0,0,.65-.11,2.91,2.91,0,0,0,.49-.22.57.57,0,0,1,.2.18A.49.49,0,0,1,40,65a1,1,0,0,1-.32.22,1.75,1.75,0,0,1-.47.14,2.65,2.65,0,0,1-.58.06,2.94,2.94,0,0,1-.91-.14,1.88,1.88,0,0,1-.7-.41,1.82,1.82,0,0,1-.46-.68,2.52,2.52,0,0,1-.16-1,2.31,2.31,0,0,1,.16-.91,1.89,1.89,0,0,1,.43-.65,1.7,1.7,0,0,1,.64-.39,2.22,2.22,0,0,1,.77-.13,2.06,2.06,0,0,1,.76.13,1.88,1.88,0,0,1,.6.36,1.79,1.79,0,0,1,.38.56,1.87,1.87,0,0,1,.14.71.45.45,0,0,1-.12.35.68.68,0,0,1-.34.16Zm.94-1.8a.94.94,0,0,0-.69.28,1.12,1.12,0,0,0-.31.78l1.87-.28a.89.89,0,0,0-.24-.54A.79.79,0,0,0,38.38,61.92Z"/><path class="cls-1" d="M44,64.39a.78.78,0,0,0,.46.12,1.36,1.36,0,0,0,.29,0,1.07,1.07,0,0,0,.27-.09.74.74,0,0,1,.12.17.51.51,0,0,1,0,.22.48.48,0,0,1-.23.42,1.24,1.24,0,0,1-.73.17,1.69,1.69,0,0,1-1.06-.3,1.22,1.22,0,0,1-.38-1V60.19l.2,0a1.2,1.2,0,0,1,.28,0,.75.75,0,0,1,.44.11.47.47,0,0,1,.14.39v.7H45.1a1.59,1.59,0,0,1,.08.18.88.88,0,0,1,0,.24.44.44,0,0,1-.1.32.36.36,0,0,1-.27.1h-1V64A.45.45,0,0,0,44,64.39Z"/><path class="cls-1" d="M49.92,63.24a2.52,2.52,0,0,1-.15.89,2,2,0,0,1-.42.67,1.8,1.8,0,0,1-.65.43,2.35,2.35,0,0,1-.86.15,2.3,2.3,0,0,1-.85-.15,1.72,1.72,0,0,1-.65-.43,1.87,1.87,0,0,1-.42-.66,2.54,2.54,0,0,1-.15-.9,2.46,2.46,0,0,1,.15-.88,1.91,1.91,0,0,1,.42-.67,1.87,1.87,0,0,1,.66-.42,2.24,2.24,0,0,1,.84-.15,2.34,2.34,0,0,1,.85.15,1.92,1.92,0,0,1,.65.42,1.84,1.84,0,0,1,.43.68A2.41,2.41,0,0,1,49.92,63.24ZM47.84,62a.89.89,0,0,0-.72.34,1.85,1.85,0,0,0,0,1.89.86.86,0,0,0,.72.33.89.89,0,0,0,.73-.33,1.56,1.56,0,0,0,.25-.95,1.46,1.46,0,0,0-.26-.94A.86.86,0,0,0,47.84,62Z"/><path class="cls-1" d="M53.72,64.39a.76.76,0,0,0,.46.12,1.43,1.43,0,0,0,.29,0,1.07,1.07,0,0,0,.27-.09.71.71,0,0,1,.11.17.5.5,0,0,1-.18.64,1.28,1.28,0,0,1-.74.17,1.68,1.68,0,0,1-1-.3,1.19,1.19,0,0,1-.38-1V60.19l.19,0a1.36,1.36,0,0,1,.29,0,.69.69,0,0,1,.43.11.44.44,0,0,1,.14.39v.7H54.8a.75.75,0,0,1,.07.18.61.61,0,0,1,0,.24.49.49,0,0,1-.1.32.37.37,0,0,1-.28.1h-1V64A.45.45,0,0,0,53.72,64.39Z"/><path class="cls-1" d="M56.62,65.28a1.2,1.2,0,0,1-.28,0,.73.73,0,0,1-.44-.11.47.47,0,0,1-.15-.39V59.75l.2,0,.29,0a.73.73,0,0,1,.44.11.45.45,0,0,1,.15.39v1.17a2,2,0,0,1,.42-.16,1.86,1.86,0,0,1,.54-.07,1.79,1.79,0,0,1,1.23.4,1.51,1.51,0,0,1,.46,1.2v2.52l-.2,0a1.29,1.29,0,0,1-.29,0,.78.78,0,0,1-.45-.11.5.5,0,0,1-.14-.39v-2a.75.75,0,0,0-.22-.61.84.84,0,0,0-.57-.2,1.18,1.18,0,0,0-.43.08,1.27,1.27,0,0,0-.35.17v3Z"/><path class="cls-1" d="M61.42,63.72a1,1,0,0,0,.44.63,1.53,1.53,0,0,0,.8.2,2,2,0,0,0,.65-.11,3.33,3.33,0,0,0,.49-.22.47.47,0,0,1,.19.18.5.5,0,0,1,.08.26A.48.48,0,0,1,64,65a1.13,1.13,0,0,1-.32.22,1.86,1.86,0,0,1-.47.14,2.65,2.65,0,0,1-.58.06,2.9,2.9,0,0,1-.91-.14,1.88,1.88,0,0,1-.7-.41,1.82,1.82,0,0,1-.46-.68,2.52,2.52,0,0,1-.16-1,2.31,2.31,0,0,1,.16-.91,1.76,1.76,0,0,1,.43-.65,1.7,1.7,0,0,1,.64-.39,2.19,2.19,0,0,1,.77-.13,2.06,2.06,0,0,1,.76.13,1.83,1.83,0,0,1,.59.36,1.67,1.67,0,0,1,.39.56,1.87,1.87,0,0,1,.14.71.45.45,0,0,1-.12.35.71.71,0,0,1-.35.16Zm.94-1.8a.9.9,0,0,0-.69.28,1.17,1.17,0,0,0-.32.78l1.88-.28a.89.89,0,0,0-.24-.54A.79.79,0,0,0,62.36,61.92Z"/><path class="cls-1" d="M68.55,65a1.65,1.65,0,0,1-1.12.37,1.68,1.68,0,0,1-.74-.14.47.47,0,0,1-.27-.45.62.62,0,0,1,0-.25.69.69,0,0,1,.1-.17l.29.08a1.55,1.55,0,0,0,.31,0,.63.63,0,0,0,.7-.72V60.11l.22,0a1.36,1.36,0,0,1,.29,0,.73.73,0,0,1,.44.11.49.49,0,0,1,.15.41v3.3A1.43,1.43,0,0,1,68.55,65Z"/><path class="cls-1" d="M74.09,63.24a2.52,2.52,0,0,1-.15.89,2,2,0,0,1-.42.67,1.8,1.8,0,0,1-.65.43,2.51,2.51,0,0,1-1.71,0,1.8,1.8,0,0,1-.65-.43,1.87,1.87,0,0,1-.42-.66,2.54,2.54,0,0,1-.15-.9,2.46,2.46,0,0,1,.15-.88,1.91,1.91,0,0,1,.42-.67,2,2,0,0,1,.66-.42,2.24,2.24,0,0,1,.84-.15,2.3,2.3,0,0,1,.85.15,2.06,2.06,0,0,1,.66.42,2,2,0,0,1,.42.68A2.41,2.41,0,0,1,74.09,63.24ZM72,62a.86.86,0,0,0-.71.34,1.46,1.46,0,0,0-.27.94,1.53,1.53,0,0,0,.26.95.86.86,0,0,0,.72.33.88.88,0,0,0,.73-.33,1.55,1.55,0,0,0,.26-.95,1.46,1.46,0,0,0-.27-.94A.86.86,0,0,0,72,62Z"/><path class="cls-1" d="M75.57,64.28a12.34,12.34,0,0,1-.48-1.14,15.65,15.65,0,0,1-.56-1.74.62.62,0,0,1,.23-.18,1,1,0,0,1,.33-.07.64.64,0,0,1,.36.1.69.69,0,0,1,.23.37c.26.85.57,1.71.9,2.59h0c.07-.19.15-.4.23-.64s.16-.48.24-.74L77.3,62c.07-.26.13-.52.18-.77l.22-.08a.61.61,0,0,1,.24,0,.8.8,0,0,1,.38.1.38.38,0,0,1,.16.33,3.6,3.6,0,0,1-.11.72,9.65,9.65,0,0,1-.29,1c-.12.35-.26.71-.41,1.07s-.31.67-.46.94a5.82,5.82,0,0,1-.8,1.16,1,1,0,0,1-.71.39.61.61,0,0,1-.43-.16.68.68,0,0,1-.21-.39,3.69,3.69,0,0,0,.29-.28q.15-.15.3-.33c.1-.12.2-.24.29-.37a3.75,3.75,0,0,0,.24-.36L76,64.9a.53.53,0,0,1-.14-.12l-.16-.19A1.76,1.76,0,0,1,75.57,64.28Z"/><path class="cls-1" d="M80.3,61.51h1.53a.91.91,0,0,1,.08.17.85.85,0,0,1,0,.23.45.45,0,0,1-.1.33.41.41,0,0,1-.27.1H80.35v2.9l-.2,0a1.36,1.36,0,0,1-.29,0,.73.73,0,0,1-.44-.11.47.47,0,0,1-.15-.39V61.07a1.77,1.77,0,0,1,.13-.69,1.24,1.24,0,0,1,.36-.48,1.37,1.37,0,0,1,.54-.27,2.43,2.43,0,0,1,.68-.09c.75,0,1.13.19,1.13.59a.48.48,0,0,1-.06.24.45.45,0,0,1-.13.17,2.57,2.57,0,0,0-.36-.11,2.72,2.72,0,0,0-.42,0,1,1,0,0,0-.64.17.7.7,0,0,0-.2.55Z"/><path class="cls-1" d="M86.3,64.79a.71.71,0,0,1-.25.23,2.11,2.11,0,0,1-.62.25,3.21,3.21,0,0,1-.86.11,3.16,3.16,0,0,1-.79-.1,1.83,1.83,0,0,1-.61-.3,1.35,1.35,0,0,1-.39-.52,1.88,1.88,0,0,1-.14-.74V61.25l.2,0a1.32,1.32,0,0,1,.29,0,.73.73,0,0,1,.44.1.45.45,0,0,1,.15.4v2a.79.79,0,0,0,.22.63.94.94,0,0,0,.64.19,1.84,1.84,0,0,0,.44,0,1,1,0,0,0,.28-.11V61.25l.2,0a1.23,1.23,0,0,1,.28,0,.73.73,0,0,1,.44.1.45.45,0,0,1,.14.4v2.77A.81.81,0,0,1,86.3,64.79Z"/><path class="cls-1" d="M88.36,65.28a1.36,1.36,0,0,1-.29,0,.73.73,0,0,1-.44-.11.5.5,0,0,1-.14-.39V59.75a1.13,1.13,0,0,1,.2,0l.28,0a.78.78,0,0,1,.45.11.47.47,0,0,1,.14.39v5.06Z"/><path class="cls-1" d="M92.59,63.54v1.7l-.21,0a1.53,1.53,0,0,1-.3,0,.69.69,0,0,1-.46-.12.55.55,0,0,1-.13-.4V60.54a.31.31,0,0,1,.09-.24.56.56,0,0,1,.23-.14l.3-.07c.11,0,.23,0,.35-.06l.35,0h.34a2.55,2.55,0,0,1,1.68.48,1.79,1.79,0,0,1,0,2.59,2.34,2.34,0,0,1-1.59.48Zm.59-.88a1.27,1.27,0,0,0,.8-.22.78.78,0,0,0,.29-.68A.81.81,0,0,0,94,61.1a1.29,1.29,0,0,0-.8-.22,3.61,3.61,0,0,0-.62,0v1.73Z"/><path class="cls-1" d="M97.69,61.12a2.28,2.28,0,0,1,1.33.35,1.27,1.27,0,0,1,.49,1.1v2a.47.47,0,0,1-.1.32,1,1,0,0,1-.25.21,2.09,2.09,0,0,1-.6.23,3.52,3.52,0,0,1-.83.09,2.37,2.37,0,0,1-1.34-.33,1.1,1.1,0,0,1-.48-1,1,1,0,0,1,.36-.86,1.79,1.79,0,0,1,1-.37l1.16-.12v-.15a.54.54,0,0,0-.23-.48,1.22,1.22,0,0,0-.66-.15,2.74,2.74,0,0,0-.64.08,2.83,2.83,0,0,0-.56.2.65.65,0,0,1-.15-.18.45.45,0,0,1-.07-.25.47.47,0,0,1,.08-.28.8.8,0,0,1,.26-.19,2.18,2.18,0,0,1,.56-.15A4.46,4.46,0,0,1,97.69,61.12Zm0,3.44a2.15,2.15,0,0,0,.45,0,.72.72,0,0,0,.29-.12v-.94l-.82.08a1.15,1.15,0,0,0-.52.15.4.4,0,0,0-.17.36.45.45,0,0,0,.18.38A1,1,0,0,0,97.73,64.56Z"/><path class="cls-1" d="M101.64,65.24l-.21,0a1.2,1.2,0,0,1-.28,0,.73.73,0,0,1-.44-.11.47.47,0,0,1-.15-.39V62.13a.77.77,0,0,1,.1-.38,1,1,0,0,1,.3-.27,2.66,2.66,0,0,1,.65-.26,3.1,3.1,0,0,1,.83-.1c.54,0,.8.17.8.5a.78.78,0,0,1,0,.22l-.08.18a2.24,2.24,0,0,0-.49-.05,2.6,2.6,0,0,0-.56.07,2,2,0,0,0-.44.17Z"/><path class="cls-1" d="M104.66,63.72a1,1,0,0,0,.44.63,1.53,1.53,0,0,0,.8.2,2,2,0,0,0,.66-.11,2.76,2.76,0,0,0,.48-.22.49.49,0,0,1,.2.18.49.49,0,0,1,0,.56,1.07,1.07,0,0,1-.31.22,2,2,0,0,1-.47.14,2.74,2.74,0,0,1-.59.06,2.94,2.94,0,0,1-.91-.14,1.84,1.84,0,0,1-1.16-1.09,2.52,2.52,0,0,1-.16-1,2.31,2.31,0,0,1,.16-.91,1.78,1.78,0,0,1,.44-.65,1.59,1.59,0,0,1,.63-.39,2.22,2.22,0,0,1,.77-.13,2.15,2.15,0,0,1,.77.13,2,2,0,0,1,.59.36,1.79,1.79,0,0,1,.38.56,1.7,1.7,0,0,1,.14.71.45.45,0,0,1-.12.35.68.68,0,0,1-.34.16Zm.94-1.8a.94.94,0,0,0-.69.28,1.12,1.12,0,0,0-.31.78l1.88-.28a1,1,0,0,0-.25-.54A.79.79,0,0,0,105.6,61.92Z"/><path class="cls-1" d="M110.76,62.13a.87.87,0,0,0-.56-.17,2,2,0,0,0-.45.06,1.5,1.5,0,0,0-.36.16v3.06l-.21,0a1.2,1.2,0,0,1-.28,0,.73.73,0,0,1-.44-.11.47.47,0,0,1-.15-.39V62.09a.58.58,0,0,1,.09-.33.88.88,0,0,1,.26-.24,2.08,2.08,0,0,1,.65-.29,3.58,3.58,0,0,1,.9-.11,2.15,2.15,0,0,1,1.35.38,1.4,1.4,0,0,1,.47,1.13v2.61l-.19,0a1.36,1.36,0,0,1-.29,0,.73.73,0,0,1-.44-.11.47.47,0,0,1-.14-.39V62.67A.66.66,0,0,0,110.76,62.13Z"/><path class="cls-1" d="M114.35,64.39a.76.76,0,0,0,.46.12,1.43,1.43,0,0,0,.29,0,1.07,1.07,0,0,0,.27-.09.71.71,0,0,1,.11.17.5.5,0,0,1-.18.64,1.28,1.28,0,0,1-.74.17,1.68,1.68,0,0,1-1-.3,1.19,1.19,0,0,1-.38-1V60.19l.19,0a1.36,1.36,0,0,1,.29,0,.69.69,0,0,1,.43.11.44.44,0,0,1,.14.39v.7h1.25a.75.75,0,0,1,.07.18.61.61,0,0,1,0,.24.49.49,0,0,1-.1.32.37.37,0,0,1-.28.1h-1V64A.45.45,0,0,0,114.35,64.39Z"/><path class="cls-1" d="M116.32,60a.54.54,0,0,1,.18-.41.63.63,0,0,1,.88,0,.57.57,0,0,1,.17.41.6.6,0,0,1-.17.43.63.63,0,0,1-.88,0A.57.57,0,0,1,116.32,60Zm.09,1.23.2,0a1.2,1.2,0,0,1,.28,0,.73.73,0,0,1,.44.11.47.47,0,0,1,.14.39v3.54l-.19,0a1.36,1.36,0,0,1-.29,0,.73.73,0,0,1-.44-.11.5.5,0,0,1-.14-.39Z"/><path class="cls-1" d="M121,62.13a.87.87,0,0,0-.56-.17A2.13,2.13,0,0,0,120,62a1.5,1.5,0,0,0-.36.16v3.06l-.21,0a1.2,1.2,0,0,1-.28,0,.73.73,0,0,1-.44-.11.47.47,0,0,1-.15-.39V62.09a.58.58,0,0,1,.09-.33.88.88,0,0,1,.26-.24,2.08,2.08,0,0,1,.65-.29,3.58,3.58,0,0,1,.9-.11,2.15,2.15,0,0,1,1.35.38,1.38,1.38,0,0,1,.48,1.13v2.61l-.2,0a1.36,1.36,0,0,1-.29,0,.73.73,0,0,1-.44-.11.5.5,0,0,1-.14-.39V62.67A.66.66,0,0,0,121,62.13Z"/><path class="cls-1" d="M126,64.9a1.38,1.38,0,0,1-.39.14,2.06,2.06,0,0,1-.52.06,2.37,2.37,0,0,1-.72-.1,1.5,1.5,0,0,1-.59-.34,1.72,1.72,0,0,1-.41-.62,2.47,2.47,0,0,1-.14-.92,2.32,2.32,0,0,1,.14-.86,1.65,1.65,0,0,1,.43-.63,1.69,1.69,0,0,1,.65-.38,2.57,2.57,0,0,1,.85-.13,3,3,0,0,1,.81.11,2.28,2.28,0,0,1,.58.25.94.94,0,0,1,.25.23A.55.55,0,0,1,127,62V65.3a1.68,1.68,0,0,1-.15.74,1.56,1.56,0,0,1-.43.52,1.82,1.82,0,0,1-.63.29,3.35,3.35,0,0,1-.79.09,3.5,3.5,0,0,1-.77-.08,1.51,1.51,0,0,1-.48-.18.54.54,0,0,1-.28-.48.53.53,0,0,1,.07-.28.44.44,0,0,1,.16-.17,2,2,0,0,0,.53.23,2.09,2.09,0,0,0,.67.11,1.38,1.38,0,0,0,.79-.2.71.71,0,0,0,.29-.63Zm-.74-.62a1.22,1.22,0,0,0,.42-.07,1.39,1.39,0,0,0,.3-.16V62.13a1.69,1.69,0,0,0-.27-.11,1.08,1.08,0,0,0-.38-.06,1,1,0,0,0-.75.29,1.18,1.18,0,0,0-.28.87,1.75,1.75,0,0,0,.07.55.93.93,0,0,0,.21.35.75.75,0,0,0,.3.2A1.59,1.59,0,0,0,125.22,64.28Z"/></svg>